<?xml version="1.0" encoding="UTF-8"?>
<svg id="Layer_2" data-name="Layer 2" xmlns="http://www.w3.org/2000/svg" viewBox="0 0 1397.53 379.32">
  <defs>
    <style>
      .cls-1 {
        fill: url(#radial-gradient);
        stroke-width: 0px;
      }
    </style>
    <radialGradient id="radial-gradient" cx="1480.36" cy="428.31" fx="1480.36" fy="428.31" r="1856.34" gradientUnits="userSpaceOnUse">
      <stop offset="0" stop-color="#1ec1fe"/>
      <stop offset="1" stop-color="#5c3cf6"/>
    </radialGradient>
  </defs>
  <g id="Layer_1-2" data-name="Layer 1">
    <path class="cls-1" d="m374.86,0v126.44h-121.98L126.44,0h248.42ZM126.44,0L0,126.44h0v252.88h0l126.43-126.44h0V0h0Zm0,252.88v126.44h121.98l126.44-126.44H126.44Zm414.95,62.19c51.95,0,94.11-30.7,105.25-76.24h-25.97c-10.46,32.38-40.82,52.96-78.94,52.96-52.96,0-88.38-40.48-88.38-101.2s35.42-101.54,88.38-101.54c37.78,0,67.47,21.25,77.59,56h25.97c-9.78-47.9-50.6-79.27-102.55-79.27-68.14,0-114.69,50.6-114.69,124.81s45.88,124.47,113.34,124.47Zm130.88-85.34c0,49.59,35.08,85.68,82.98,85.68s82.98-36.09,82.98-85.68-35.08-86.02-82.98-86.02-82.98,36.09-82.98,86.02Zm23.61-.34c0-37.78,24.29-64.77,59.37-64.77s59.37,26.99,59.37,64.77-24.63,65.1-59.37,65.1-59.37-26.65-59.37-65.1Zm216.56-161.92h-33.06v243.89h140.33v-30.7h-107.27V67.47Zm185.87,247.94c26.65,0,49.25-11.81,57.68-30.7l3.37,26.65h26.99v-103.56c0-44.53-27.66-66.12-68.48-66.12s-70.84,22.6-70.84,57.01h27.66c0-19.9,15.18-31.71,41.83-31.71,22.26,0,38.79,9.78,38.79,37.44v4.72l-51.95,4.05c-38.79,3.04-61.39,21.93-61.39,52.29s20.91,49.92,56.33,49.92Zm9.11-24.63c-20.58,0-33.4-8.77-33.4-26.31,0-16.19,11.47-26.99,39.47-29.68l42.17-3.37v8.77c0,31.03-18.22,50.6-48.24,50.6Zm151.46,20.58l2.36-30.02c10.79,22.6,32.72,34.07,58.7,34.07,47.9,0,77.59-35.76,77.59-85.68s-28.34-88.04-75.56-88.04c-26.99,0-49.25,11.47-60.04,33.06V63.08h-31.71v248.27h28.67Zm3.37-82.98c0-33.73,19.57-58.02,51.95-58.02s51.61,24.29,51.61,58.02-19.23,58.36-51.61,58.36-51.95-23.95-51.95-58.36Zm121.1-200.19c8.01,0,14.17-6.21,14.17-14.06s-6.21-14.12-14.17-14.12-14.28,6.16-14.28,14.12,6.27,14.06,14.28,14.06Zm0-2.13c-6.92,0-11.99-5.07-11.99-11.94s5.07-11.99,11.99-11.99,11.99,5.18,11.99,11.99-5.18,11.94-11.99,11.94Zm-2.62-4.74v-5.4h3.43l2.73,5.4h2.51l-3.11-5.94c1.8-.82,2.78-2.18,2.78-4.14,0-2.62-2.07-4.41-5.12-4.41h-5.4v14.5h2.18Zm6-9.97c0,1.53-1.14,2.51-2.89,2.51h-3.11v-4.91h3.11c1.8,0,2.89.87,2.89,2.4Z"/>
  </g>
</svg>
